Coordinates
version=1
nRows=9
nColumns=63
inDegrees=yes

Units are S.I. units (second, meters, Newtons, ...)
If the header above contains a line with 'inDegrees', this indicates whether rotational values are in degrees (yes) or radians (no).

endheader
time	pelvis_tilt	pelvis_list	pelvis_rotation	pelvis_tx	pelvis_ty	pelvis_tz	hip_flexion_r	hip_adduction_r	hip_rotation_r	knee_angle_r	knee_angle_r_beta	ankle_angle_r	subtalar_angle_r	mtp_angle_r	hip_flexion_l	hip_adduction_l	hip_rotation_l	knee_angle_l	knee_angle_l_beta	ankle_angle_l	subtalar_angle_l	mtp_angle_l	L5_S1_Flex_Ext	L5_S1_Lat_Bending	L5_S1_axial_rotation	L4_L5_Flex_Ext	L4_L5_Lat_Bending	L4_L5_axial_rotation	L3_L4_Flex_Ext	L3_L4_Lat_Bending	L3_L4_axial_rotation	L2_L3_Flex_Ext	L2_L3_Lat_Bending	L2_L3_axial_rotation	L1_L2_Flex_Ext	L1_L2_Lat_Bending	L1_L2_axial_rotation	L1_T12_Flex_Ext	L1_T12_Lat_Bending	L1_T12_axial_rotation	Abs_r3	Abs_r2	Abs_r1	Abs_t1	Abs_t2	neck_flexion	neck_bending	neck_rotation	arm_flex_r	arm_add_r	arm_rot_r	elbow_flex_r	pro_sup_r	wrist_flex_r	wrist_dev_r	arm_flex_l	arm_add_l	arm_rot_l	elbow_flex_l	pro_sup_l	wrist_flex_l	wrist_dev_l
     24.50000000	     -2.73014264	     -2.25534740	     -9.78257437	     -0.77397268	      0.87842730	      0.31311866	     -0.52265392	      4.44748095	     -1.35104299	      9.64258890	      0.16829492	     10.58389958	      3.16240619	      0.00000000	     28.76234054	     -8.00767998	     -3.51389015	     46.45242563	      0.81074777	      7.77135373	    -16.95802228	      0.00000000	     -0.01099284	      0.23541752	      3.35479141	     -0.02041481	      0.31310530	      3.56446587	     -0.01806014	      0.57239416	      3.56446587	     -0.01256372	      0.57239416	      2.93544248	     -0.01020796	      0.48006341	      2.72576802	     -0.00628131	      0.36466174	      2.51609356	     -0.07852079	      2.66309007	     18.65834338	      0.00000000	      0.00000000	      0.00000000	      0.00000000	      0.00000000	     -5.79623641	    -12.94541936	     -8.95443075	     36.88932150	     27.95572289	      0.00000000	      5.00000014	     -7.66546560	     -2.30805315	     -5.55179504	     30.39039031	     37.61295287	      0.00000000	      5.00000014
     24.53333333	     -3.16441270	     -1.11047528	    -11.73443354	     -0.74450947	      0.87499439	      0.31703562	     -2.25947074	      3.13516477	      1.79081894	      9.29040500	      0.16214816	     12.27159903	      2.99521339	      0.00000000	     29.53906601	     -7.90452517	     -5.50682723	     37.19306254	      0.64914140	      6.77799109	    -14.73328279	      0.00000000	     -0.00917348	      0.11926520	      3.85930956	     -0.01703608	      0.15862272	      4.10051641	     -0.01507112	      0.28998142	      4.10051641	     -0.01048437	      0.28998142	      3.37689586	     -0.00851850	      0.24320560	      3.13568902	     -0.00524173	      0.18474180	      2.89448217	     -0.06552527	      1.34915184	     21.46432197	      0.00000000	      0.00000000	      0.00000000	      0.00000000	      0.00000000	     -4.77956858	    -11.86373927	    -14.09819504	     38.05870416	     28.35125932	      0.00000000	      5.00000014	     -7.50909702	     -3.74965732	     -1.34969561	     30.13113216	     38.19193416	      0.00000000	      5.00000014
     24.56666667	     -3.46126647	     -0.11757393	    -13.04450560	     -0.71370018	      0.87004251	      0.31975014	     -3.95609962	      1.79506692	      3.69439715	      9.22532941	      0.16101237	     14.28802969	      3.70830460	      0.00000000	     29.54465119	     -7.57874639	     -7.67883346	     28.03677066	      0.48933396	      4.94642096	    -11.73346420	      0.00000000	     -0.00663226	      0.00639393	      4.19015426	     -0.01231678	      0.00850393	      4.45203890	     -0.01089615	      0.01554620	      4.45203890	     -0.00758001	      0.01554620	      3.66638498	     -0.00615872	      0.01303850	      3.40450034	     -0.00378968	      0.00990420	      3.14261569	     -0.04737360	      0.07232941	     23.30438094	      0.00000000	      0.00000000	      0.00000000	      0.00000000	      0.00000000	     -3.87504838	    -11.48247746	    -15.18993218	     38.88550980	     28.88778126	      0.00000000	      5.00000014	     -7.44017215	     -4.70998191	      0.13996298	     30.16646266	     38.41333976	      0.00000000	      5.00000014
     24.60000000	     -3.61068419	      0.53957266	    -13.69075586	     -0.68104986	      0.86400634	      0.32078323	     -5.68916448	      0.68234331	      4.82084397	      9.59468560	      0.16745885	     16.33428150	      4.15812033	      0.00000000	     29.16361767	     -6.87743646	     -9.40581112	     20.26708436	      0.35372735	      2.87918043	     -9.15729427	      0.00000000	     -0.00111715	     -0.07692031	      4.34587565	     -0.00207467	     -0.10230401	      4.61749288	     -0.00183537	     -0.18702403	      4.61749288	     -0.00127680	     -0.18702403	      3.80264119	     -0.00103739	     -0.15685589	      3.53102396	     -0.00063834	     -0.11914955	      3.25940674	     -0.00797972	     -0.87013789	     24.17045660	      0.00000000	      0.00000000	      0.00000000	      0.00000000	      0.00000000	     -3.31752860	    -11.19875603	    -15.36729698	     39.61281239	     29.17632549	      0.00000000	      5.00000014	     -7.31457113	     -5.39250431	      0.81369959	     29.77366432	     38.56134561	      0.00000000	      5.00000014
     24.63333333	     -3.58755064	      0.78111887	    -14.89313902	     -0.64706753	      0.85801493	      0.32145266	     -7.07312352	     -0.21239071	      6.04739230	     11.12663576	      0.19419643	     18.20324679	      4.04959257	      0.00000000	     28.39836924	     -7.05886131	    -14.90427229	     15.10836510	      0.26369072	      2.81113028	     -2.11023503	      0.00000000	      0.00027147	     -0.12007582	      4.56205943	      0.00050415	     -0.15970083	      4.84718815	      0.00044600	     -0.29195234	      4.84718815	      0.00031027	     -0.29195234	      3.99180200	      0.00025209	     -0.24485860	      3.70667329	      0.00015512	     -0.18599744	      3.42154457	      0.00193910	     -1.35832164	     25.37280595	      0.00000000	      0.00000000	      0.00000000	      0.00000000	      0.00000000	     -3.02015686	    -10.95068188	    -15.34342208	     39.89822545	     30.25630129	      0.00000000	      5.00000014	     -6.76719177	     -6.40118450	      4.56244398	     28.42282933	     39.48719786	      0.00000000	      5.00000014
     24.66666667	     -3.46164138	      0.87660200	    -15.22063300	     -0.61131059	      0.85298262	      0.32005125	     -8.38026393	     -0.79385202	      7.79668312	     13.32083056	      0.23249235	     18.94475008	      0.79477742	      0.00000000	     27.80227893	     -6.49453786	    -18.18886671	     12.68070639	      0.22132008	      2.60452382	      1.57374714	      0.00000000	      0.00296868	     -0.15425801	      4.56786564	      0.00551314	     -0.20516315	      4.85335724	      0.00487725	     -0.37506291	      4.85335724	      0.00339291	     -0.37506291	      3.99688243	      0.00275672	     -0.31456292	      3.71139083	      0.00169631	     -0.23894565	      3.42589923	      0.02120500	     -1.74499741	     25.40509831	      0.00000000	      0.00000000	      0.00000000	      0.00000000	      0.00000000	     -3.03963056	    -10.90455427	    -13.72913027	     39.73830776	     31.89031339	      0.00000000	      5.00000014	     -5.89503645	     -7.36398413	      9.41921573	     25.94040677	     41.00313683	      0.00000000	      5.00000014
     24.70000000	     -3.23569994	      0.91872424	    -15.19506483	     -0.57424584	      0.84993619	      0.31751507	     -9.35141121	     -1.15946122	      9.23872281	     16.45453294	      0.28718578	     18.20769679	     -4.28248791	      0.00000000	     27.08442924	     -5.61927370	    -18.97483784	     12.45069549	      0.21730563	      2.40562240	      1.34134046	      0.00000000	      0.00305525	     -0.18445234	      4.48157290	      0.00567390	     -0.24532162	      4.76167121	      0.00501946	     -0.44847743	      4.76167121	      0.00349184	     -0.44847743	      3.92137629	      0.00283710	     -0.37613522	      3.64127798	      0.00174577	     -0.28571668	      3.36117968	      0.02182331	     -2.08656181	     24.92516402	      0.00000000	      0.00000000	      0.00000000	      0.00000000	      0.00000000	     -3.30497509	    -10.41597973	    -13.18384267	     39.18067100	     35.09563536	      0.00000000	      5.00000014	     -4.42705392	     -8.68497483	     18.67953988	     22.44963042	     44.73438388	      0.00000000	      5.00000014
     24.73333333	     -2.94628485	      0.81189730	    -14.64566242	     -0.53608350	      0.84936764	      0.31397680	     -9.79996006	     -1.15254000	      9.69777232	     20.64362254	      0.36029918	     15.43679194	    -10.39378114	      0.00000000	     26.07728680	     -4.58349040	    -17.48267249	     13.63211725	      0.23792533	      2.27207739	     -1.62481341	      0.00000000	      0.00148947	     -0.20166967	      4.25916017	      0.00276609	     -0.26822066	      4.52535768	      0.00244704	     -0.49033963	      4.52535768	      0.00170231	     -0.49033963	      3.72676514	      0.00138312	     -0.41124478	      3.46056763	      0.00085108	     -0.31238631	      3.19437012	      0.01063911	     -2.28132760	     23.68817109	      0.00000000	      0.00000000	      0.00000000	      0.00000000	      0.00000000	     -3.73668790	    -10.17850580	    -10.62726753	     38.09420146	     36.25592108	      0.00000000	      5.00000014	     -3.56074208	     -9.07234561	     22.31837351	     19.76672737	     46.46486570	      0.00000000	      5.00000014
     24.76666667	     -2.58405497	      0.55103992	    -13.41178128	     -0.49703449	      0.85141071	      0.30959689	     -9.41737685	     -1.00721149	      7.80352450	     26.11863827	      0.45585623	     10.68380371	    -15.17684825	      0.00000000	     24.58121576	     -3.33112919	    -14.25681835	     15.33819422	      0.26770199	      2.22584676	     -5.92412367	      0.00000000	      0.00083236	     -0.19132838	      3.93135966	      0.00154577	     -0.25446675	      4.17706964	      0.00136748	     -0.46519582	      4.17706964	      0.00095130	     -0.46519582	      3.43993970	      0.00077293	     -0.39015683	      3.19422972	      0.00047561	     -0.29636766	      2.94851974	      0.00594546	     -2.16434491	     21.86504300	      0.00000000	      0.00000000	      0.00000000	      0.00000000	      0.00000000	     -4.63773233	     -9.53272313	     -9.88076827	     37.06130882	     40.11834771	      0.00000000	      5.00000014	     -0.93836601	    -10.95282820	     43.22804698	     16.77227812	     56.66127619	      0.00000000	      5.00000014
